<svg xmlns="http://www.w3.org/2000/svg" viewBox="0 0 45 45">
  <linearGradient id="a" gradientUnits="userSpaceOnUse" x1="0" y1="-70" x2="45" y2="-115" gradientTransform="matrix(1 0 0 -1 0 -70)">
    <stop offset="0" stop-color="#ff690f"/>
    <stop offset="1" stop-color="#e8381b"/>
  </linearGradient>
  <path d="M45 45H0V0h45v45zM3.1 41.9h38.8V3.1H3.1v38.8z" fill="url(#a)"/>
  <linearGradient id="b" gradientUnits="userSpaceOnUse" x1="13.488" y1="-80.515" x2="30.437" y2="-105.062" gradientTransform="matrix(1 0 0 -1 0 -70)">
    <stop offset="0" stop-color="#ff690f"/>
    <stop offset="1" stop-color="#e8381b"/>
  </linearGradient>
  <path d="M10.4 27.9l-1.3-9.5h2.2l.3 5.1v2.4h.1c.1-.4.1-.8.2-1.2.1-.4.2-.8.2-1.2l.6-2.6h1.4l.6 2.6c.1.4.2.8.2 1.2.1.4.2.8.2 1.2h.1v-1.2-1.2l.3-5.1h2.1l-1.2 9.5h-2.3l-.3-2.9c-.1-.3-.1-.6-.2-.9 0-.3-.1-.6-.1-.9 0 .3-.1.6-.1.9 0 .3-.1.6-.1.9l-.6 2.9h-2.3zm12.6.2c-.6 0-1.2-.1-1.7-.3-.5-.2-1-.5-1.4-.9-.4-.4-.7-.9-1-1.5-.2-.6-.3-1.3-.3-2.1s.1-1.5.3-2.1c.2-.6.6-1.1 1-1.6.4-.4.9-.8 1.4-1 .6-.2 1.1-.3 1.8-.3.6 0 1.1.1 1.6.4.5.2.9.5 1.2.8l-1.2 1.3c-.2-.2-.5-.4-.7-.5-.3-.1-.6-.2-.9-.2-.3 0-.7.1-.9.2-.3.1-.5.3-.7.6-.2.3-.4.6-.5 1-.1.4-.2.8-.2 1.3 0 1 .2 1.7.7 2.3.4.5 1 .8 1.7.8.3 0 .7-.1.9-.2.3-.2.6-.4.8-.6l1.2 1.3c-.7.8-1.8 1.3-3.1 1.3zm8.8 0c-.6 0-1.2-.1-1.7-.3-.5-.2-1-.5-1.4-.9-.4-.4-.7-.9-1-1.5-.2-.6-.3-1.3-.3-2.1s.1-1.5.3-2.1c.2-.6.6-1.1 1-1.6.4-.4.9-.8 1.4-1 .6-.2 1.1-.3 1.8-.3.6 0 1.1.1 1.6.4.5.2.9.5 1.2.8l-1.2 1.3c-.2-.2-.5-.4-.7-.5-.3-.1-.6-.2-.9-.2-.3 0-.7.1-.9.2-.3.1-.5.3-.7.6-.2.3-.4.6-.5 1-.1.4-.2.8-.2 1.3 0 1 .2 1.7.7 2.3.4.5 1 .8 1.7.8.3 0 .7-.1.9-.2.3-.2.6-.4.8-.6l1.2 1.3c-.8.8-1.8 1.3-3.1 1.3z" fill="url(#b)"/>
</svg>
